<svg width="198" height="126" viewBox="0 0 198 126" fill="none" xmlns="http://www.w3.org/2000/svg">
<path d="M188.681 0.638855C184.045 2.1687 179.373 3.6274 174.594 4.9082C126.772 17.6984 78.4866 15.2614 34.8012 0.674434L26.3138 54.6638L43.4848 59.2534L59.2829 30.3108C63.5266 31.1646 67.7881 31.9118 72.0675 32.57L76.9888 65.1415L94.6947 66.6891L105.215 35.4696C109.53 35.5763 113.863 35.5763 118.196 35.4518L128.716 66.6891L146.422 65.1415L151.361 32.5166C155.605 31.8762 159.866 31.1113 164.11 30.2574L179.944 59.2534L197.115 54.6638L188.681 0.638855Z" fill="white"/>
<path d="M154.232 66.8494L138.398 95.8453C134.137 94.9914 129.893 94.2265 125.649 93.5861L120.71 60.9612L103.004 59.4136L92.4839 90.651C88.1332 90.5442 83.8181 90.5442 79.5031 90.6332L68.9829 59.4136L51.277 60.9612L46.3558 93.5328C42.0585 94.1732 37.797 94.9381 33.5711 95.792L17.7731 66.8494L0.602051 71.4389L9.08945 125.428C52.7569 110.824 101.06 108.404 148.883 121.195C153.661 122.475 158.333 123.916 162.969 125.464L171.456 71.4567L154.232 66.8494Z" fill="white"/>
</svg>
